<?xml version='1.0' encoding='utf-8'?>
<svg xmlns="http://www.w3.org/2000/svg" xmlns:inkscape="http://www.inkscape.org/namespaces/inkscape" viewBox="0 0 55.0000 80.0000" width="55.0000" height="80.0000"><g transform="matrix(1 0 0 1 -4 -4.0000014)"><rect style="fill:#008033;fill-opacity:1;stroke:none;stroke-width:0.146994;stroke-miterlimit:4;stroke-dasharray:none;stroke-opacity:1" id="rect12823" width="55.000004" height="80" x="4" y="4.0000014" rx="2.6190476" ry="2.7272727" />
    </g><g transform="matrix(1 0 0 1 -4 -4.0000014)"><path style="fill:none;stroke:#ffffff;stroke-width:0.965;stroke-linecap:butt;stroke-linejoin:miter;stroke-miterlimit:4;stroke-dasharray:none;stroke-opacity:1" d="M 7.6708589,7.317421 C 17.117227,36.713832 25.28632,55.333195 31.5,65.692127 37.71368,55.333195 45.882773,36.713832 55.329141,7.317421 M 43.415274,8.6305452 C 38.730911,15.704658 34.777319,22.601018 31.5,29.117379 28.222681,22.601018 24.269089,15.704658 19.584726,8.6305452 M 7.6708589,80.682579 C 17.117227,51.286168 25.28632,32.666805 31.5,22.307873 37.71368,32.666805 45.882773,51.286168 55.329141,80.682579 M 43.415274,79.369455 C 38.730911,72.295342 34.777319,65.398982 31.5,58.882621 28.222681,65.398982 24.269089,72.295342 19.584726,79.369455" id="path12825" inkscape:connector-curvature="0" />
  </g></svg>