<?xml version='1.0' encoding='utf-8'?>
<svg xmlns="http://www.w3.org/2000/svg" xmlns:xlink="http://www.w3.org/1999/xlink" viewBox="0 0 48.5934 73.0411" width="48.5934" height="73.0411"><defs><pattern patternTransform="matrix(0.0352591,0,0,0.03644637,43.269706,451.14682)" id="pattern5365" xlink:href="#New_Pattern_2" />
    <pattern overflow="visible" viewBox="21.5646 -396.6902 250.0836 375.1254" id="New_Pattern_2" patternUnits="userSpaceOnUse" height="375.1254" width="250.0836">
      <g id="g128">
        <polygon id="polygon2-9" points="21.5646,-396.6902 271.6482,-396.6902 271.6482,-21.5648 21.5646,-21.5648   " fill="none" />
        <g id="g20">
          <path id="path4-4" d="M271.6483-43.096c4.2407,1.7459,8.8055,4.7602,9.2191,9.718     c-0.9404,2.0215-2.0088,4.0287-3.2839,5.8781c1.8494-1.2751,3.8567-2.3435,5.8782-3.2839     c4.9577,0.4136,7.972,4.9784,9.718,9.2191c-1.7459,4.2407-4.7602,8.8055-9.718,9.2191     c-2.0215-0.9404-4.0287-2.0088-5.8782-3.2839c1.2751,1.8494,2.3435,3.8567,3.2839,5.8781     c-0.4136,4.9577-4.9784,7.9721-9.2191,9.718c-4.2407-1.7459-8.8055-4.7602-9.2191-9.718     c0.9404-2.0215,2.0089-4.0287,3.2839-5.8781c-1.8494,1.2751-3.8567,2.3435-5.8781,3.2839     c-4.9577-0.4136-7.9721-4.9784-9.718-9.2191c1.7459-4.2407,4.7602-8.8055,9.718-9.2191     c2.0215,0.9404,4.0287,2.0088,5.8781,3.2839c-1.2751-1.8494-2.3435-3.8567-3.2839-5.8781     C262.8428-38.3358,267.4075-41.3501,271.6483-43.096z" stroke-width="0.0616" stroke="#367D2D" fill="#367D2D" />
          <path id="path6-4" d="M221.2694-21.5647c2.1453-3.2724,4.9512-6.0676,8.4811-7.883     c5.7842-3.2345,12.6372-3.6743,19.1006-2.9004c-1.7736,3.4374-3.2251,7.0518-4.2327,10.7834     c1.0075,3.7316,2.459,7.346,4.2327,10.7834c-6.4634,0.7738-13.3164,0.334-19.1006-2.9004     C226.2207-15.4971,223.4147-18.2924,221.2694-21.5647z" stroke-width="0.0616" stroke="#367D2D" fill="#367D2D" />
          <path id="path8-1" d="M271.6483-71.9436c3.2724,2.1453,6.0676,4.9512,7.883,8.4811     c3.2345,5.7842,3.6743,12.6372,2.9004,19.1006c-3.4374-1.7736-7.0518-3.2251-10.7834-4.2327     c-3.7316,1.0075-7.346,2.459-10.7834,4.2327c-0.7738-6.4634-0.334-13.3164,2.9005-19.1006     C265.5806-66.9923,268.3759-69.7983,271.6483-71.9436z" stroke-width="0.0616" stroke="#367D2D" fill="#367D2D" />
          <path id="path10-3" d="M171.0791-38.7169     c5.9902,5.6895,13.3554,11.0172,21.9176,11.3735c6.6248,0.2561,12.782-3.6743,16.0554-9.3193     c-9.4139-2.7668-17.1855-9.1356-23.532-16.4284c5.4279,4.938,11.1453,10.1766,18.1542,12.576     c2.2992-0.4175,4.5372,0.2505,6.6137,1.1913c0.5289-1.9318,1.3918-3.7522,2.5664-5.3834     c0.9798-3.318-0.4064-6.9978-2.1433-9.8593c-4.3423-6.6248-11.4515-10.7723-18.3936-14.2183     c-11.4793-5.8566-23.9718-9.3304-35.7517-14.4744c-0.8963,2.4662-0.039,5.0939,0.039,7.6213     C157.8462-62.3602,161.4648-48.4982,171.0791-38.7169z" stroke-width="0.0616" stroke="#419931" fill="#419931" />
          <path id="path12-1" d="M254.4961-122.1339     c5.6895,5.9902,11.0172,13.3554,11.3735,21.9175c0.2561,6.6248-3.6743,12.782-9.3193,16.0554     c-2.7668-9.4139-9.1356-17.1855-16.4284-23.532c4.938,5.4279,10.1766,11.1453,12.576,18.1542     c-0.4175,2.2992,0.2505,4.5372,1.1913,6.6137c-1.9318,0.5289-3.7522,1.3918-5.3833,2.5664     c-3.318,0.9798-6.9978-0.4064-9.8593-2.1433c-6.6248-4.3423-10.7723-11.4515-14.2183-18.3936     c-5.8566-11.4793-9.3304-23.9718-14.4744-35.7517c2.4662-0.8963,5.0939-0.039,7.6213,0.039     C230.8528-135.3668,244.7148-131.7482,254.4961-122.1339z" stroke-width="0.0616" stroke="#419931" fill="#419931" />
          <path id="path14-4" d="M247.7489-45.4641c-3.3253,1.6946-7.1581,1.754-10.661,2.9561     l-0.3173,0.1058c-4.9157-1.3973-9.7813-3.613-13.3276-7.3931c-8.4322-8.8604-12.8477-21.0231-13.1822-33.1569     c12.1338,0.3346,24.2965,4.75,33.1569,13.1822c3.78,3.5462,5.9957,8.4118,7.3931,13.3276l-0.1058,0.3173     C249.5029-52.6222,249.4435-48.7894,247.7489-45.4641z" stroke-width="0.0616" stroke="#A9BD04" fill="#A9BD04" />
          <path id="path16-2" d="M255.3355-37.8775     c-12.4636,3.5054-25.6741,4.3902-38.3837,1.7994c-4.5316-1.1134-9.169-2.1767-13.2775-4.437     c2.2992-0.4175,4.5372,0.2505,6.6137,1.1914c0.5289-1.9318,1.3918-3.7522,2.5664-5.3834     c-0.0612,2.032-0.7682,3.9526-1.5365,5.812c11.1954,3.2901,23.2147,3.1064,34.5826,0.8239     c2.4902-0.5175,4.9515-1.14,7.3804-1.861c0.7209-2.4289,1.3434-4.8902,1.861-7.3804c2.2825-11.368,2.4662-23.3872-0.8239-34.5826     c-1.8594,0.7683-3.78,1.4753-5.812,1.5365c1.6311-1.1747,3.4516-2.0375,5.3833-2.5664     c-0.9408-2.0765-1.6089-4.3145-1.1913-6.6137c2.2602,4.1085,3.3235,8.7459,4.437,13.2775     C259.7257-63.5515,258.8409-50.3411,255.3355-37.8775z" stroke-width="0.0616" stroke="#46803A" fill="#46803A" />
          <path id="path18-4" d="M249.3284-43.8846c-3.8619,1.6085-8.1015,2.31-12.2405,1.3765     c3.5029-1.202,7.3357-1.2615,10.661-2.9561c1.6946-3.3253,1.754-7.1581,2.9561-10.661     C251.6384-51.9861,250.9369-47.7465,249.3284-43.8846z" stroke-width="0.0616" stroke="#477823" fill="#477823" />
        </g>
        <g id="g38">
          <path id="path22-3" d="M21.5646-43.096c4.2407,1.7459,8.8055,4.7602,9.2191,9.718     c-0.9404,2.0215-2.0088,4.0287-3.2839,5.8781c1.8494-1.2751,3.8567-2.3435,5.8781-3.2839     c4.9577,0.4136,7.9721,4.9784,9.718,9.2191c-1.7459,4.2407-4.7602,8.8055-9.718,9.2191     c-2.0215-0.9404-4.0287-2.0088-5.8781-3.2839c1.2751,1.8494,2.3435,3.8567,3.2839,5.8781     c-0.4136,4.9577-4.9784,7.9721-9.2191,9.718c-4.2407-1.7459-8.8055-4.7602-9.2191-9.718     c0.9404-2.0215,2.0088-4.0287,3.2839-5.8781c-1.8494,1.2751-3.8567,2.3435-5.8781,3.2839     c-4.9577-0.4136-7.9721-4.9784-9.718-9.2191c1.7459-4.2407,4.7602-8.8055,9.718-9.2191     c2.0215,0.9404,4.0287,2.0088,5.8781,3.2839c-1.2751-1.8494-2.3435-3.8567-3.2839-5.8781     C12.7592-38.3358,17.3239-41.3501,21.5646-43.096z" stroke-width="0.0616" stroke="#367D2D" fill="#367D2D" />
          <path id="path24-6" d="M71.9435-21.5647c-2.1453,3.2724-4.9512,6.0676-8.4811,7.883     c-5.7842,3.2345-12.6372,3.6743-19.1006,2.9004c1.7736-3.4374,3.2251-7.0518,4.2327-10.7834     c-1.0075-3.7316-2.459-7.346-4.2327-10.7834c6.4634-0.7738,13.3164-0.334,19.1006,2.9004     C66.9922-27.6324,69.7982-24.8371,71.9435-21.5647z" stroke-width="0.0616" stroke="#367D2D" fill="#367D2D" />
          <path id="path26-3" d="M21.5646-71.9436c3.2724,2.1453,6.0676,4.9512,7.883,8.4811     c3.2345,5.7842,3.6743,12.6372,2.9004,19.1006c-3.4374-1.7736-7.0518-3.2251-10.7834-4.2327     c-3.7316,1.0075-7.346,2.459-10.7834,4.2327c-0.7738-6.4634-0.334-13.3164,2.9004-19.1006     C15.497-66.9923,18.2923-69.7983,21.5646-71.9436z" stroke-width="0.0616" stroke="#367D2D" fill="#367D2D" />
          <path id="path28-6" d="M38.7168-122.1339     c-5.6895,5.9902-11.0172,13.3554-11.3735,21.9175c-0.2561,6.6248,3.6743,12.782,9.3193,16.0554     c2.7668-9.4139,9.1356-17.1855,16.4284-23.532c-4.938,5.4279-10.1766,11.1453-12.576,18.1542     c0.4175,2.2992-0.2505,4.5372-1.1913,6.6137c1.9318,0.5289,3.7522,1.3918,5.3834,2.5664     c3.318,0.9798,6.9978-0.4064,9.8593-2.1433c6.6248-4.3423,10.7723-11.4515,14.2183-18.3936     c5.8565-11.4793,9.3304-23.9718,14.4744-35.7517c-2.4662-0.8963-5.0939-0.039-7.6213,0.039     C62.3601-135.3668,48.4981-131.7482,38.7168-122.1339z" stroke-width="0.0616" stroke="#419931" fill="#419931" />
          <path id="path30-1" d="M122.1338-38.7169     c-5.9902,5.6895-13.3554,11.0172-21.9175,11.3735c-6.6248,0.2561-12.782-3.6743-16.0554-9.3193     c9.4139-2.7668,17.1855-9.1356,23.532-16.4284c-5.4279,4.938-11.1453,10.1766-18.1542,12.576     c-2.2992-0.4175-4.5371,0.2505-6.6137,1.1913c-0.5289-1.9318-1.3918-3.7522-2.5664-5.3834     c-0.9798-3.318,0.4064-6.9978,2.1433-9.8593c4.3423-6.6248,11.4515-10.7723,18.3936-14.2183     c11.4793-5.8566,23.9718-9.3304,35.7517-14.4744c0.8963,2.4662,0.039,5.0939-0.039,7.6213     C135.3667-62.3602,131.7481-48.4982,122.1338-38.7169z" stroke-width="0.0616" stroke="#419931" fill="#419931" />
          <path id="path32-0" d="M56.125-42.508l0.3173,0.1058     c4.9157-1.3973,9.7813-3.613,13.3276-7.3931c8.4322-8.8604,12.8477-21.0231,13.1822-33.1569     c-12.1338,0.3346-24.2965,4.75-33.1569,13.1822c-3.78,3.5462-5.9957,8.4118-7.3931,13.3276l0.1058,0.3173     c1.202,3.5029,1.2615,7.3357,2.9561,10.661C48.7893-43.7695,52.6221-43.7101,56.125-42.508z" stroke-width="0.0616" stroke="#A9BD04" fill="#A9BD04" />
          <path id="path34-6" d="M76.2611-36.0781c4.5316-1.1134,9.169-2.1767,13.2775-4.437     c-2.2992-0.4175-4.5372,0.2505-6.6137,1.1914c-0.5289-1.9318-1.3918-3.7522-2.5664-5.3834     c0.0612,2.032,0.7683,3.9526,1.5365,5.812c-11.1954,3.2901-23.2147,3.1064-34.5826,0.8239     c-2.4902-0.5175-4.9515-1.14-7.3804-1.861c-0.7209-2.4289-1.3434-4.8902-1.861-7.3804     c-2.2825-11.368-2.4662-23.3872,0.8239-34.5826c1.8594,0.7683,3.78,1.4753,5.812,1.5365     c-1.6312-1.1747-3.4516-2.0375-5.3834-2.5664c0.9408-2.0765,1.6089-4.3145,1.1914-6.6137     c-2.2602,4.1085-3.3235,8.7459-4.437,13.2775c-2.5908,12.7097-1.706,25.9201,1.7994,38.3837     C50.341-34.3721,63.5514-33.4873,76.2611-36.0781z" stroke-width="0.0616" stroke="#46803A" fill="#46803A" />
          <path id="path36-1" d="M56.125-42.508c-3.5029-1.202-7.3357-1.2615-10.661-2.9561     c-1.6946-3.3253-1.754-7.1581-2.9561-10.661c-0.9334,4.139-0.2319,8.3786,1.3765,12.2405     C47.7464-42.2761,51.986-41.5746,56.125-42.508z" stroke-width="0.0616" stroke="#477823" fill="#477823" />
        </g>
        <g id="g90">
          <path id="path40-9" d="M146.6064-230.6587c4.2407,1.7459,8.8055,4.7602,9.2191,9.718     c-0.9404,2.0215-2.0088,4.0287-3.2839,5.8782c1.8494-1.2751,3.8567-2.3435,5.8782-3.2839     c4.9577,0.4136,7.972,4.9784,9.718,9.2191c-1.7459,4.2407-4.7602,8.8055-9.718,9.2191     c-2.0215-0.9404-4.0287-2.0088-5.8782-3.2839c1.2751,1.8494,2.3435,3.8567,3.2839,5.8782     c-0.4136,4.9577-4.9784,7.972-9.2191,9.718c-4.2407-1.7459-8.8055-4.7602-9.2191-9.718     c0.9404-2.0215,2.0088-4.0287,3.2839-5.8782c-1.8494,1.2751-3.8567,2.3435-5.8782,3.2839     c-4.9577-0.4136-7.9721-4.9784-9.718-9.2191c1.7459-4.2407,4.7602-8.8055,9.718-9.2191     c2.0215,0.9404,4.0287,2.0088,5.8782,3.2839c-1.2751-1.8494-2.3435-3.8567-3.2839-5.8782     C137.801-225.8985,142.3658-228.9128,146.6064-230.6587z" stroke-width="0.0616" stroke="#367D2D" fill="#367D2D" />
          <path id="path42-2" d="M196.9853-209.1274c-2.1453,3.2724-4.9512,6.0676-8.4811,7.883     c-5.7842,3.2345-12.6373,3.6743-19.1006,2.9004c1.7737-3.4374,3.2251-7.0518,4.2327-10.7834     c-1.0075-3.7316-2.459-7.346-4.2327-10.7834c6.4634-0.7738,13.3164-0.334,19.1006,2.9004     C192.034-215.1951,194.84-212.3998,196.9853-209.1274z" stroke-width="0.0616" stroke="#367D2D" fill="#367D2D" />
          <path id="path44-7" d="M146.6064-158.7486c-3.2724-2.1453-6.0676-4.9512-7.883-8.4811     c-3.2345-5.7842-3.6743-12.6373-2.9004-19.1006c3.4374,1.7737,7.0518,3.2251,10.7834,4.2327     c3.7316-1.0075,7.346-2.459,10.7834-4.2327c0.7738,6.4634,0.334,13.3164-2.9004,19.1006     C152.6741-163.6998,149.8788-160.8939,146.6064-158.7486z" stroke-width="0.0616" stroke="#367D2D" fill="#367D2D" />
          <path id="path46-7" d="M96.2276-209.1274c2.1453-3.2724,4.9512-6.0676,8.4811-7.883     c5.7842-3.2345,12.6372-3.6743,19.1006-2.9004c-1.7737,3.4374-3.2251,7.0518-4.2327,10.7834     c1.0075,3.7316,2.459,7.346,4.2327,10.7834c-6.4634,0.7738-13.3164,0.334-19.1006-2.9004     C101.1789-203.0598,98.3729-205.8551,96.2276-209.1274z" stroke-width="0.0616" stroke="#367D2D" fill="#367D2D" />
          <path id="path48-7" d="M146.6064-259.5063c3.2724,2.1453,6.0676,4.9512,7.883,8.4811     c3.2345,5.7842,3.6743,12.6373,2.9004,19.1006c-3.4374-1.7737-7.0518-3.2251-10.7834-4.2327     c-3.7316,1.0075-7.346,2.459-10.7834,4.2327c-0.7738-6.4634-0.334-13.3164,2.9004-19.1006     C140.5388-254.555,143.3341-257.361,146.6064-259.5063z" stroke-width="0.0616" stroke="#367D2D" fill="#367D2D" />
          <path id="path50-7" d="M163.7586-309.6966     c-5.6895,5.9902-11.0172,13.3554-11.3735,21.9176c-0.2561,6.6248,3.6743,12.782,9.3193,16.0554     c2.7668-9.4139,9.1355-17.1855,16.4284-23.532c-4.938,5.4279-10.1766,11.1453-12.576,18.1542     c0.4175,2.2992-0.2505,4.5371-1.1913,6.6137c1.9318,0.5289,3.7522,1.3918,5.3834,2.5664     c3.318,0.9798,6.9978-0.4064,9.8593-2.1433c6.6248-4.3423,10.7723-11.4515,14.2183-18.3936     c5.8566-11.4793,9.3304-23.9718,14.4744-35.7517c-2.4662-0.8963-5.0939-0.0389-7.6213,0.039     C187.4019-322.9295,173.5399-319.3109,163.7586-309.6966z" stroke-width="0.0616" stroke="#419931" fill="#419931" />
          <path id="path52-4" d="M46.0373-226.2796     c5.9902,5.6895,13.3554,11.0172,21.9175,11.3735c6.6248,0.2561,12.782-3.6743,16.0554-9.3193     c-9.4139-2.7668-17.1855-9.1355-23.532-16.4284c5.4279,4.938,11.1453,10.1766,18.1542,12.576     c2.2992-0.4175,4.5371,0.2505,6.6137,1.1913c0.5289-1.9318,1.3918-3.7522,2.5664-5.3834     c0.9798-3.318-0.4064-6.9978-2.1433-9.8593c-4.3423-6.6248-11.4515-10.7723-18.3936-14.2183     c-11.4793-5.8565-23.9718-9.3304-35.7517-14.4744c-0.8963,2.4662-0.039,5.0939,0.039,7.6213     C32.8044-249.9229,36.423-236.0609,46.0373-226.2796z" stroke-width="0.0616" stroke="#419931" fill="#419931" />
          <path id="path54-1" d="M129.4543-108.5583     c5.6895-5.9902,11.0172-13.3554,11.3735-21.9175c0.2561-6.6248-3.6743-12.782-9.3193-16.0554     c-2.7668,9.4139-9.1356,17.1855-16.4284,23.532c4.938-5.4279,10.1766-11.1453,12.576-18.1542     c-0.4175-2.2992,0.2505-4.5372,1.1914-6.6137c-1.9318-0.5289-3.7522-1.3918-5.3834-2.5664     c-3.318-0.9798-6.9978,0.4064-9.8593,2.1433c-6.6248,4.3423-10.7723,11.4514-14.2183,18.3936     c-5.8566,11.4793-9.3304,23.9718-14.4744,35.7517c2.4662,0.8963,5.0939,0.039,7.6213-0.039     C105.811-95.3254,119.673-98.944,129.4543-108.5583z" stroke-width="0.0616" stroke="#419931" fill="#419931" />
          <path id="path56-8" d="M247.1756-191.9753     c-5.9902-5.6895-13.3554-11.0172-21.9175-11.3735c-6.6248-0.2561-12.782,3.6743-16.0554,9.3193     c9.4139,2.7668,17.1855,9.1355,23.532,16.4284c-5.4279-4.938-11.1453-10.1766-18.1542-12.576     c-2.2992,0.4175-4.5372-0.2505-6.6137-1.1913c-0.5289,1.9318-1.3918,3.7522-2.5664,5.3834     c-0.9798,3.318,0.4064,6.9978,2.1433,9.8593c4.3423,6.6248,11.4514,10.7723,18.3936,14.2183     c11.4793,5.8566,23.9718,9.3304,35.7517,14.4744c0.8963-2.4662,0.0389-5.0939-0.039-7.6213     C260.4085-168.332,256.7899-182.194,247.1756-191.9753z" stroke-width="0.0616" stroke="#419931" fill="#419931" />
          <path id="path58-4" d="M247.1756-226.2796     c-5.9902,5.6895-13.3554,11.0172-21.9175,11.3735c-6.6248,0.2561-12.782-3.6743-16.0554-9.3193     c9.4139-2.7668,17.1855-9.1355,23.532-16.4284c-5.4279,4.938-11.1453,10.1766-18.1542,12.576     c-2.2992-0.4175-4.5372,0.2505-6.6137,1.1913c-0.5289-1.9318-1.3918-3.7522-2.5664-5.3834     c-0.9798-3.318,0.4064-6.9978,2.1433-9.8593c4.3423-6.6248,11.4514-10.7723,18.3936-14.2183     c11.4793-5.8565,23.9718-9.3304,35.7517-14.4744c0.8963,2.4662,0.0389,5.0939-0.039,7.6213     C260.4085-249.9229,256.7899-236.0609,247.1756-226.2796z" stroke-width="0.0616" stroke="#419931" fill="#419931" />
          <path id="path60" d="M129.4543-309.6966     c5.6895,5.9902,11.0172,13.3554,11.3735,21.9176c0.2561,6.6248-3.6743,12.782-9.3193,16.0554     c-2.7668-9.4139-9.1356-17.1855-16.4284-23.532c4.938,5.4279,10.1766,11.1453,12.576,18.1542     c-0.4175,2.2992,0.2505,4.5371,1.1914,6.6137c-1.9318,0.5289-3.7522,1.3918-5.3834,2.5664     c-3.318,0.9798-6.9978-0.4064-9.8593-2.1433c-6.6248-4.3423-10.7723-11.4515-14.2183-18.3936     c-5.8566-11.4793-9.3304-23.9718-14.4744-35.7517c2.4662-0.8963,5.0939-0.0389,7.6213,0.039     C105.811-322.9295,119.673-319.3109,129.4543-309.6966z" stroke-width="0.0616" stroke="#419931" fill="#419931" />
          <path id="path62-7" d="M46.0373-191.9753     c5.9902-5.6895,13.3554-11.0172,21.9175-11.3735c6.6248-0.2561,12.782,3.6743,16.0554,9.3193     c-9.4139,2.7668-17.1855,9.1355-23.532,16.4284c5.4279-4.938,11.1453-10.1766,18.1542-12.576     c2.2992,0.4175,4.5371-0.2505,6.6137-1.1913c0.5289,1.9318,1.3918,3.7522,2.5664,5.3834     c0.9798,3.318-0.4064,6.9978-2.1433,9.8593c-4.3423,6.6248-11.4515,10.7723-18.3936,14.2183     c-11.4793,5.8566-23.9718,9.3304-35.7517,14.4744c-0.8963-2.4662-0.039-5.0939,0.039-7.6213     C32.8044-168.332,36.423-182.194,46.0373-191.9753z" stroke-width="0.0616" stroke="#419931" fill="#419931" />
          <path id="path64-8" d="M163.7586-108.5583     c-5.6895-5.9902-11.0172-13.3554-11.3735-21.9175c-0.2561-6.6248,3.6743-12.782,9.3193-16.0554     c2.7668,9.4139,9.1355,17.1855,16.4284,23.532c-4.938-5.4279-10.1766-11.1453-12.576-18.1542     c0.4175-2.2992-0.2505-4.5372-1.1913-6.6137c1.9318-0.5289,3.7522-1.3918,5.3834-2.5664     c3.318-0.9798,6.9978,0.4064,9.8593,2.1433c6.6248,4.3423,10.7723,11.4514,14.2183,18.3936     c5.8566,11.4793,9.3304,23.9718,14.4744,35.7517c-2.4662,0.8963-5.0939,0.039-7.6213-0.039     C187.4019-95.3254,173.5399-98.944,163.7586-108.5583z" stroke-width="0.0616" stroke="#419931" fill="#419931" />
          <path id="path66-2" d="M181.1668-230.0707l0.3173,0.1058     c4.9157-1.3973,9.7813-3.613,13.3276-7.3931c8.4323-8.8604,12.8477-21.0231,13.1823-33.1569     c-12.1338,0.3346-24.2965,4.75-33.1569,13.1823c-3.78,3.5462-5.9957,8.4118-7.3931,13.3276l0.1058,0.3173     c1.202,3.5029,1.2615,7.3357,2.9561,10.661C173.8311-231.3322,177.6639-231.2728,181.1668-230.0707z" stroke-width="0.0616" stroke="#A9BD04" fill="#A9BD04" />
          <path id="path68-2" d="M170.5058-185.2281c3.3253-1.6946,7.1581-1.754,10.661-2.9561     l0.3173-0.1058c4.9157,1.3973,9.7813,3.613,13.3276,7.3931c8.4323,8.8604,12.8477,21.0231,13.1823,33.1569     c-12.1338-0.3346-24.2965-4.75-33.1569-13.1823c-3.78-3.5462-5.9957-8.4118-7.3931-13.3276l0.1058-0.3173     C168.7518-178.07,168.8112-181.9027,170.5058-185.2281z" stroke-width="0.0616" stroke="#A9BD04" fill="#A9BD04" />
          <path id="path70-7" d="M122.7071-185.2281c1.6946,3.3253,1.754,7.1581,2.9561,10.661     l0.1058,0.3173c-1.3973,4.9157-3.613,9.7813-7.3931,13.3276c-8.8604,8.4323-21.0231,12.8477-33.1569,13.1823     c0.3346-12.1338,4.75-24.2965,13.1822-33.1569c3.5462-3.78,8.4118-5.9957,13.3276-7.3931l0.3173,0.1058     C115.549-186.9821,119.3818-186.9227,122.7071-185.2281z" stroke-width="0.0616" stroke="#A9BD04" fill="#A9BD04" />
          <path id="path72-1" d="M122.7071-233.0268c-3.3253,1.6946-7.1581,1.754-10.661,2.9561     l-0.3173,0.1058c-4.9157-1.3973-9.7813-3.613-13.3276-7.3931c-8.4322-8.8604-12.8477-21.0231-13.1822-33.1569     c12.1338,0.3346,24.2965,4.75,33.1569,13.1823c3.78,3.5462,5.9957,8.4118,7.3931,13.3276l-0.1058,0.3173     C124.4611-240.1849,124.4017-236.3521,122.7071-233.0268z" stroke-width="0.0616" stroke="#A9BD04" fill="#A9BD04" />
          <path id="path74-6" d="M201.3029-223.6408c4.5316-1.1134,9.169-2.1767,13.2775-4.437     c-2.2992-0.4175-4.5372,0.2505-6.6137,1.1914c-0.5289-1.9318-1.3918-3.7522-2.5664-5.3834     c0.0612,2.032,0.7683,3.9526,1.5365,5.812c-11.1954,3.2901-23.2147,3.1064-34.5826,0.8239     c-2.4902-0.5175-4.9515-1.14-7.3804-1.861c-0.7209-2.4289-1.3434-4.8902-1.861-7.3804     c-2.2825-11.368-2.4662-23.3873,0.8239-34.5826c1.8594,0.7683,3.78,1.4753,5.812,1.5365     c-1.6312-1.1747-3.4516-2.0375-5.3834-2.5664c0.9408-2.0765,1.6089-4.3145,1.1914-6.6137     c-2.2602,4.1085-3.3235,8.7458-4.437,13.2775c-2.5908,12.7097-1.706,25.9201,1.7994,38.3837     C175.3828-221.9348,188.5932-221.05,201.3029-223.6408z" stroke-width="0.0616" stroke="#46803A" fill="#46803A" />
          <path id="path76-7" d="M162.9192-192.8147     c12.4636-3.5054,25.6741-4.3902,38.3837-1.7994c4.5316,1.1134,9.169,2.1767,13.2775,4.437     c-2.2992,0.4175-4.5372-0.2505-6.6137-1.1914c-0.5289,1.9318-1.3918,3.7522-2.5664,5.3834     c0.0612-2.032,0.7683-3.9526,1.5365-5.812c-11.1954-3.2901-23.2147-3.1064-34.5826-0.8239     c-2.4902,0.5175-4.9515,1.14-7.3804,1.861c-0.7209,2.4289-1.3434,4.8902-1.861,7.3804     c-2.2825,11.368-2.4662,23.3873,0.8239,34.5826c1.8594-0.7682,3.78-1.4753,5.812-1.5365     c-1.6312,1.1747-3.4516,2.0375-5.3834,2.5664c0.9408,2.0765,1.6089,4.3145,1.1914,6.6137     c-2.2602-4.1085-3.3235-8.7458-4.437-13.2775C158.529-167.1407,159.4138-180.3511,162.9192-192.8147z" stroke-width="0.0616" stroke="#46803A" fill="#46803A" />
          <path id="path78-0" d="M130.2937-192.8147     c3.5054,12.4636,4.3902,25.6741,1.7994,38.3837c-1.1134,4.5316-2.1767,9.169-4.437,13.2775     c-0.4175-2.2992,0.2505-4.5372,1.1914-6.6137c-1.9318-0.5289-3.7522-1.3918-5.3834-2.5664     c2.032,0.0612,3.9526,0.7683,5.812,1.5365c3.2901-11.1954,3.1064-23.2147,0.8239-34.5826     c-0.5175-2.4902-1.14-4.9515-1.861-7.3804c-2.4289-0.7209-4.8902-1.3434-7.3804-1.861     c-11.368-2.2825-23.3872-2.4662-34.5826,0.8239c0.7683,1.8594,1.4753,3.78,1.5365,5.812     c-1.1747-1.6312-2.0375-3.4516-2.5664-5.3834c-2.0765,0.9408-4.3145,1.6089-6.6137,1.1914     c4.1085-2.2602,8.7459-3.3235,13.2775-4.437C104.6197-197.2049,117.8301-196.3201,130.2937-192.8147z" stroke-width="0.0616" stroke="#46803A" fill="#46803A" />
          <path id="path80-5" d="M130.2937-225.4402     c-12.4636,3.5054-25.6741,4.3902-38.3837,1.7994c-4.5316-1.1134-9.169-2.1767-13.2775-4.437     c2.2992-0.4175,4.5372,0.2505,6.6137,1.1914c0.5289-1.9318,1.3918-3.7522,2.5664-5.3834     c-0.0612,2.032-0.7683,3.9526-1.5365,5.812c11.1954,3.2901,23.2147,3.1064,34.5826,0.8239     c2.4902-0.5175,4.9515-1.14,7.3804-1.861c0.7209-2.4289,1.3434-4.8902,1.861-7.3804c2.2825-11.368,2.4662-23.3873-0.8239-34.5826     c-1.8594,0.7683-3.78,1.4753-5.812,1.5365c1.6312-1.1747,3.4516-2.0375,5.3834-2.5664     c-0.9408-2.0765-1.6089-4.3145-1.1914-6.6137c2.2602,4.1085,3.3235,8.7458,4.437,13.2775     C134.6839-251.1142,133.7991-237.9038,130.2937-225.4402z" stroke-width="0.0616" stroke="#46803A" fill="#46803A" />
          <path id="path82-9" d="M181.1668-230.0708c-3.5029-1.202-7.3357-1.2615-10.661-2.9561     c-1.6946-3.3253-1.754-7.1581-2.9561-10.661c-0.9335,4.139-0.2319,8.3786,1.3765,12.2405     C172.7882-229.8388,177.0278-229.1373,181.1668-230.0708z" stroke-width="0.0616" stroke="#477823" fill="#477823" />
          <path id="path84-7" d="M168.9263-186.8076c3.8619-1.6085,8.1015-2.31,12.2405-1.3765     c-3.5029,1.202-7.3357,1.2615-10.661,2.9561c-1.6946,3.3253-1.754,7.1581-2.9561,10.661     C166.6163-178.7061,167.3178-182.9457,168.9263-186.8076z" stroke-width="0.0616" stroke="#477823" fill="#477823" />
          <path id="path86-7" d="M124.2866-186.8076c1.6085,3.8619,2.31,8.1015,1.3765,12.2405     c-1.202-3.5029-1.2615-7.3357-2.9561-10.661c-3.3253-1.6946-7.1581-1.754-10.661-2.9561     C116.1851-189.1176,120.4247-188.4161,124.2866-186.8076z" stroke-width="0.0616" stroke="#477823" fill="#477823" />
          <path id="path88-7" d="M124.2866-231.4473c-3.8619,1.6085-8.1015,2.31-12.2405,1.3765     c3.5029-1.202,7.3357-1.2615,10.661-2.9561c1.6946-3.3253,1.754-7.1581,2.9561-10.661     C126.5966-239.5488,125.8951-235.3092,124.2866-231.4473z" stroke-width="0.0616" stroke="#477823" fill="#477823" />
        </g>
        <g id="g108">
          <path id="path92-8" d="M271.6483-418.2214c4.2407,1.7459,8.8055,4.7602,9.2191,9.718     c-0.9404,2.0215-2.0088,4.0287-3.2839,5.8781c1.8494-1.2751,3.8567-2.3435,5.8782-3.2839     c4.9577,0.4136,7.972,4.9784,9.718,9.2191c-1.7459,4.2407-4.7602,8.8055-9.718,9.2191     c-2.0215-0.9404-4.0287-2.0089-5.8782-3.2839c1.2751,1.8494,2.3435,3.8567,3.2839,5.8781     c-0.4136,4.9578-4.9784,7.9721-9.2191,9.718c-4.2407-1.7459-8.8055-4.7602-9.2191-9.718     c0.9404-2.0215,2.0089-4.0287,3.2839-5.8781c-1.8494,1.2751-3.8567,2.3435-5.8781,3.2839     c-4.9577-0.4136-7.9721-4.9784-9.718-9.2191c1.7459-4.2407,4.7602-8.8055,9.718-9.2191     c2.0215,0.9404,4.0287,2.0088,5.8781,3.2839c-1.2751-1.8494-2.3435-3.8567-3.2839-5.8781     C262.8428-413.4612,267.4075-416.4755,271.6483-418.2214z" stroke-width="0.0616" stroke="#367D2D" fill="#367D2D" />
          <path id="path94-5" d="M271.6483-346.3113c-3.2724-2.1453-6.0676-4.9512-7.883-8.4811     c-3.2345-5.7842-3.6743-12.6372-2.9005-19.1006c3.4374,1.7737,7.0518,3.2251,10.7834,4.2327     c3.7315-1.0075,7.346-2.459,10.7834-4.2327c0.7738,6.4634,0.334,13.3164-2.9004,19.1006     C277.7159-351.2625,274.9206-348.4566,271.6483-346.3113z" stroke-width="0.0616" stroke="#367D2D" fill="#367D2D" />
          <path id="path96-3" d="M221.2694-396.6902c2.1453-3.2724,4.9512-6.0676,8.4811-7.883     c5.7842-3.2345,12.6372-3.6743,19.1006-2.9004c-1.7736,3.4374-3.2251,7.0518-4.2327,10.7834     c1.0075,3.7316,2.459,7.346,4.2327,10.7834c-6.4634,0.7738-13.3164,0.334-19.1006-2.9004     C226.2207-390.6225,223.4147-393.4178,221.2694-396.6902z" stroke-width="0.0616" stroke="#367D2D" fill="#367D2D" />
          <path id="path98-5" d="M254.4961-296.121     c5.6895-5.9902,11.0172-13.3554,11.3735-21.9175c0.2561-6.6248-3.6743-12.782-9.3193-16.0554     c-2.7668,9.4139-9.1356,17.1855-16.4284,23.532c4.938-5.4279,10.1766-11.1453,12.576-18.1542     c-0.4175-2.2992,0.2505-4.5372,1.1913-6.6137c-1.9318-0.5289-3.7522-1.3918-5.3833-2.5664     c-3.318-0.9798-6.9978,0.4064-9.8593,2.1433c-6.6248,4.3423-10.7723,11.4514-14.2183,18.3936     c-5.8566,11.4793-9.3304,23.9718-14.4744,35.7517c2.4662,0.8963,5.0939,0.039,7.6213-0.039     C230.8528-282.8881,244.7148-286.5067,254.4961-296.121z" stroke-width="0.0616" stroke="#419931" fill="#419931" />
          <path id="path100-1" d="M171.0791-379.538     c5.9902-5.6895,13.3554-11.0172,21.9176-11.3735c6.6248-0.2561,12.782,3.6743,16.0554,9.3192     c-9.4139,2.7668-17.1855,9.1356-23.532,16.4284c5.4279-4.938,11.1453-10.1766,18.1542-12.576     c2.2992,0.4175,4.5372-0.2505,6.6137-1.1913c0.5289,1.9318,1.3918,3.7522,2.5664,5.3834     c0.9798,3.318-0.4064,6.9978-2.1433,9.8593c-4.3423,6.6248-11.4515,10.7723-18.3936,14.2183     c-11.4793,5.8566-23.9718,9.3304-35.7517,14.4744c-0.8963-2.4662-0.039-5.0939,0.039-7.6213     C157.8462-355.8947,161.4648-369.7567,171.0791-379.538z" stroke-width="0.0616" stroke="#419931" fill="#419931" />
          <path id="path102-4" d="M247.7489-372.7908c1.6946,3.3253,1.754,7.1581,2.9561,10.661     l0.1058,0.3173c-1.3973,4.9157-3.613,9.7813-7.3931,13.3276c-8.8604,8.4322-21.0231,12.8477-33.1569,13.1822     c0.3346-12.1338,4.75-24.2965,13.1822-33.1569c3.5462-3.78,8.4118-5.9957,13.3276-7.3931l0.3173,0.1058     C240.5908-374.5448,244.4236-374.4854,247.7489-372.7908z" stroke-width="0.0616" stroke="#A9BD04" fill="#A9BD04" />
          <path id="path104-1" d="M255.3355-380.3774c3.5054,12.4636,4.3902,25.674,1.7994,38.3837     c-1.1134,4.5316-2.1767,9.1689-4.437,13.2775c-0.4175-2.2992,0.2505-4.5372,1.1913-6.6137     c-1.9318-0.5289-3.7522-1.3918-5.3833-2.5664c2.032,0.0612,3.9526,0.7683,5.812,1.5365     c3.2901-11.1954,3.1064-23.2147,0.8239-34.5826c-0.5175-2.4902-1.14-4.9515-1.861-7.3804     c-2.4289-0.7209-4.8902-1.3434-7.3804-1.861c-11.368-2.2825-23.3873-2.4662-34.5826,0.8239     c0.7683,1.8594,1.4753,3.78,1.5365,5.812c-1.1747-1.6311-2.0375-3.4516-2.5664-5.3833     c-2.0765,0.9408-4.3145,1.6089-6.6137,1.1913c4.1085-2.2602,8.7459-3.3235,13.2775-4.437     C229.6615-384.7676,242.8719-383.8828,255.3355-380.3774z" stroke-width="0.0616" stroke="#46803A" fill="#46803A" />
          <path id="path106-0" d="M249.3284-374.3703c1.6085,3.8619,2.31,8.1015,1.3765,12.2405     c-1.202-3.5029-1.2615-7.3357-2.9561-10.661c-3.3253-1.6946-7.1581-1.754-10.661-2.9561     C241.2269-376.6803,245.4665-375.9788,249.3284-374.3703z" stroke-width="0.0616" stroke="#477823" fill="#477823" />
        </g>
        <g id="g126">
          <path id="path110-9" d="M21.5646-418.2214c4.2407,1.7459,8.8055,4.7602,9.2191,9.718     c-0.9404,2.0215-2.0088,4.0287-3.2839,5.8781c1.8494-1.2751,3.8567-2.3435,5.8781-3.2839     c4.9577,0.4136,7.9721,4.9784,9.718,9.2191c-1.7459,4.2407-4.7602,8.8055-9.718,9.2191     c-2.0215-0.9404-4.0287-2.0089-5.8781-3.2839c1.2751,1.8494,2.3435,3.8567,3.2839,5.8781     c-0.4136,4.9578-4.9784,7.9721-9.2191,9.718c-4.2407-1.7459-8.8055-4.7602-9.2191-9.718     c0.9404-2.0215,2.0088-4.0287,3.2839-5.8781c-1.8494,1.2751-3.8567,2.3435-5.8781,3.2839     c-4.9577-0.4136-7.9721-4.9784-9.718-9.2191c1.7459-4.2407,4.7602-8.8055,9.718-9.2191     c2.0215,0.9404,4.0287,2.0088,5.8781,3.2839c-1.2751-1.8494-2.3435-3.8567-3.2839-5.8781     C12.7592-413.4612,17.3239-416.4755,21.5646-418.2214z" stroke-width="0.0616" stroke="#367D2D" fill="#367D2D" />
          <path id="path112-5" d="M71.9435-396.6902c-2.1453,3.2724-4.9512,6.0676-8.4811,7.883     c-5.7842,3.2345-12.6372,3.6743-19.1006,2.9004c1.7736-3.4374,3.2251-7.0518,4.2327-10.7834     c-1.0075-3.7315-2.459-7.346-4.2327-10.7834c6.4634-0.7738,13.3164-0.334,19.1006,2.9004     C66.9922-402.7578,69.7982-399.9625,71.9435-396.6902z" stroke-width="0.0616" stroke="#367D2D" fill="#367D2D" />
          <path id="path114-3" d="M21.5646-346.3113c-3.2724-2.1453-6.0676-4.9512-7.883-8.4811     c-3.2345-5.7842-3.6743-12.6372-2.9004-19.1006c3.4374,1.7737,7.0519,3.2251,10.7834,4.2327     c3.7316-1.0075,7.346-2.459,10.7834-4.2327c0.7738,6.4634,0.334,13.3164-2.9004,19.1006     C27.6323-351.2625,24.837-348.4566,21.5646-346.3113z" stroke-width="0.0616" stroke="#367D2D" fill="#367D2D" />
          <path id="path116-1" d="M122.1338-379.538     c-5.9902-5.6895-13.3554-11.0172-21.9175-11.3735c-6.6248-0.2561-12.782,3.6743-16.0554,9.3192     c9.4139,2.7668,17.1855,9.1356,23.532,16.4284c-5.4279-4.938-11.1453-10.1766-18.1542-12.576     c-2.2992,0.4175-4.5371-0.2505-6.6137-1.1913c-0.5289,1.9318-1.3918,3.7522-2.5664,5.3834     c-0.9798,3.318,0.4064,6.9978,2.1433,9.8593c4.3423,6.6248,11.4515,10.7723,18.3936,14.2183     c11.4793,5.8566,23.9718,9.3304,35.7517,14.4744c0.8963-2.4662,0.039-5.0939-0.039-7.6213     C135.3667-355.8947,131.7481-369.7567,122.1338-379.538z" stroke-width="0.0616" stroke="#419931" fill="#419931" />
          <path id="path118" d="M38.7168-296.121     c-5.6895-5.9902-11.0172-13.3554-11.3735-21.9175c-0.2561-6.6248,3.6743-12.782,9.3193-16.0554     c2.7668,9.4139,9.1356,17.1855,16.4284,23.532c-4.938-5.4279-10.1766-11.1453-12.576-18.1542     c0.4175-2.2992-0.2505-4.5372-1.1913-6.6137c1.9318-0.5289,3.7522-1.3918,5.3834-2.5664     c3.318-0.9798,6.9978,0.4064,9.8593,2.1433c6.6248,4.3423,10.7723,11.4514,14.2183,18.3936     c5.8565,11.4793,9.3304,23.9718,14.4744,35.7517c-2.4662,0.8963-5.0939,0.039-7.6213-0.039     C62.3601-282.8881,48.4981-286.5067,38.7168-296.121z" stroke-width="0.0616" stroke="#419931" fill="#419931" />
          <path id="path120-2" d="M45.464-372.7908c3.3253-1.6946,7.1581-1.754,10.661-2.9561     l0.3173-0.1058c4.9157,1.3973,9.7813,3.613,13.3276,7.3931c8.4322,8.8604,12.8477,21.0231,13.1822,33.1569     c-12.1338-0.3346-24.2965-4.75-33.1569-13.1822c-3.78-3.5462-5.9957-8.4119-7.3931-13.3276l0.1058-0.3173     C43.71-365.6327,43.7694-369.4655,45.464-372.7908z" stroke-width="0.0616" stroke="#A9BD04" fill="#A9BD04" />
          <path id="path122-5" d="M37.8774-380.3774c12.4636-3.5054,25.6741-4.3902,38.3837-1.7994     c4.5316,1.1134,9.169,2.1767,13.2775,4.437c-2.2992,0.4175-4.5372-0.2505-6.6137-1.1913     c-0.5289,1.9318-1.3918,3.7522-2.5664,5.3833c0.0612-2.032,0.7683-3.9526,1.5365-5.812     c-11.1954-3.2901-23.2147-3.1064-34.5826-0.8239c-2.4902,0.5175-4.9515,1.14-7.3804,1.861     c-0.7209,2.4289-1.3434,4.8902-1.861,7.3804c-2.2825,11.368-2.4662,23.3872,0.8239,34.5826     c1.8594-0.7682,3.78-1.4753,5.812-1.5365c-1.6312,1.1747-3.4516,2.0376-5.3834,2.5664c0.9408,2.0765,1.6089,4.3145,1.1914,6.6137     c-2.2602-4.1085-3.3235-8.7459-4.437-13.2775C33.4872-354.7034,34.372-367.9138,37.8774-380.3774z" stroke-width="0.0616" stroke="#46803A" fill="#46803A" />
          <path id="path124" d="M43.8845-374.3703c3.8619-1.6085,8.1015-2.31,12.2405-1.3765     c-3.5029,1.202-7.3357,1.2615-10.661,2.9561c-1.6946,3.3253-1.754,7.1581-2.9561,10.661     C41.5745-366.2688,42.276-370.5084,43.8845-374.3703z" stroke-width="0.0616" stroke="#477823" fill="#477823" />
        </g>
      </g>
    </pattern>
    </defs><g transform="matrix(1.0084536 0 0 1.0060205 -164.47941 -494.94609)"><rect style="display:inline;fill:url(#pattern5365);fill-opacity:1;stroke:none;stroke-width:0.258115;stroke-linecap:round;stroke-linejoin:miter;stroke-miterlimit:4;stroke-dasharray:none;stroke-opacity:1" id="rect25578" width="48.186024" height="72.603973" x="163.10062" y="491.9841" />
    </g></svg>