<?xml version='1.0' encoding='utf-8'?>
<svg xmlns="http://www.w3.org/2000/svg" xmlns:inkscape="http://www.inkscape.org/namespaces/inkscape" xmlns:xlink="http://www.w3.org/1999/xlink" viewBox="0 0 54.9345 79.2527" width="54.9345" height="79.2527"><defs><pattern patternTransform="matrix(0.02041176,-0.02043783,0.02040959,0.02043565,835.47412,53.526082)" id="pattern47860" xlink:href="#pattern46668" inkscape:collect="always" />
    <pattern patternTransform="matrix(0.02050382,-0.02050382,0.02050164,0.02050164,835.28883,53.425984)" id="pattern46668" xlink:href="#pattern46596" inkscape:collect="always" />
    <pattern patternTransform="matrix(0.01626118,-0.01628462,0.01651724,0.01654104,894.68499,354.37022)" id="pattern46596" xlink:href="#pattern26236" inkscape:collect="always" />
    <pattern patternTransform="matrix(0.01626118,-0.01628462,0.01651724,0.01654104,469.1275,394.5414)" id="pattern26236" xlink:href="#pattern25310" inkscape:collect="always" />
    <pattern patternTransform="matrix(0.01626118,-0.01628462,0.01651724,0.01654104,437.56303,501.56468)" id="pattern25310" xlink:href="#pattern32487" inkscape:collect="always" />
    <pattern patternTransform="matrix(0.06321531,-0.06321531,0.06421075,0.06421075,2189.4827,1654.7781)" id="pattern32487" xlink:href="#pattern32400" />
    <pattern patternTransform="matrix(0.08939995,0,0,0.09080772,2180.8503,1643.8685)" id="pattern32400" xlink:href="#pattern5323" />
    <pattern patternTransform="matrix(0.09584971,0,0,0.09584971,-648.06723,533.33333)" id="pattern5323" xlink:href="#New_Pattern_5" />
    <pattern overflow="visible" viewBox="0 -251 251 251" id="New_Pattern_5" patternUnits="userSpaceOnUse" height="251" width="251">
      <g id="g88">
        <polygon id="polygon2-5" points="0,-251 251,-251 251,0 0,0   " fill="none" />
        <g id="g86">
          <path id="path4-8" d="M125.5-138.3677c3.1546-0.9485,6.3634-1.7067,9.6282-2.2102     c1.7767-0.2434,3.7184-0.3513,5.5948-0.145c0.2063,1.8764,0.0983,3.8181-0.145,5.5948     c-0.5035,3.2648-1.2617,6.4735-2.2102,9.6282c0.9485,3.1546,1.7067,6.3634,2.2102,9.6282     c0.2434,1.7767,0.3513,3.7184,0.145,5.5948c-1.8764,0.2063-3.8181,0.0983-5.5948-0.1451     c-3.2648-0.5035-6.4735-1.2617-9.6282-2.2102c-3.1546,0.9485-6.3634,1.7067-9.6282,2.2102     c-1.7767,0.2434-3.7184,0.3514-5.5948,0.1451c-0.2063-1.8764-0.0983-3.8182,0.1451-5.5948     c0.5035-3.2648,1.2617-6.4735,2.2102-9.6282c-0.9485-3.1546-1.7067-6.3634-2.2102-9.6282     c-0.2434-1.7767-0.3514-3.7184-0.1451-5.5948c1.8764-0.2063,3.8182-0.0983,5.5948,0.145     C119.1366-140.0744,122.3454-139.3162,125.5-138.3677z" stroke-width="0.0606" stroke="#367D2D" fill="#367D2D" />
          <path id="path6-1" d="M164.8475-125.5c-0.5527,2.5056-1.5078,4.9105-2.9546,7.0933     c-3.4073,5.5518-9.0734,9.2201-14.9881,11.6605c-0.2197-6.4377-1.4766-12.867-4.1385-18.7538     c2.6619-5.8868,3.9188-12.3161,4.1385-18.7538c5.9147,2.4404,11.5808,6.1087,14.9881,11.6605     C163.3396-130.4105,164.2947-128.0056,164.8475-125.5z" stroke-width="0.0606" stroke="#367D2D" fill="#367D2D" />
          <path id="path8-6" d="M125.5-86.1525c-2.5056-0.5527-4.9105-1.5078-7.0933-2.9546     c-5.5518-3.4073-9.2201-9.0734-11.6605-14.9881c6.4377-0.2197,12.867-1.4766,18.7538-4.1385     c5.8868,2.6619,12.3161,3.9188,18.7538,4.1385c-2.4404,5.9147-6.1087,11.5808-11.6605,14.9881     C130.4105-87.6604,128.0056-86.7053,125.5-86.1525z" stroke-width="0.0606" stroke="#367D2D" fill="#367D2D" />
          <path id="path10-5" d="M86.1525-125.5c0.5527-2.5056,1.5078-4.9105,2.9546-7.0933     c3.4073-5.5518,9.0734-9.2201,14.9881-11.6605c0.2197,6.4377,1.4766,12.867,4.1385,18.7538     c-2.6619,5.8868-3.9188,12.3161-4.1385,18.7538c-5.9147-2.4404-11.5808-6.1087-14.9881-11.6605     C87.6604-120.5895,86.7053-122.9944,86.1525-125.5z" stroke-width="0.0606" stroke="#367D2D" fill="#367D2D" />
          <path id="path12-16" d="M125.5-164.8475c2.5056,0.5527,4.9105,1.5078,7.0933,2.9546     c5.5518,3.4073,9.2201,9.0734,11.6605,14.9881c-6.4377,0.2197-12.867,1.4766-18.7538,4.1385     c-5.8868-2.6619-12.3161-3.9188-18.7538-4.1385c2.4404-5.9147,6.1087-11.5808,11.6605-14.9881     C120.5895-163.3396,122.9944-164.2947,125.5-164.8475z" stroke-width="0.0606" stroke="#367D2D" fill="#367D2D" />
          <path id="path14-2" d="M113.9214-246.8065c-2.1301-1.2806-3.9719-3.2778-6.5174-3.6935     c-1.2457,12.573-4.266,24.9551-4.7562,37.6125c-0.3786,7.6086-0.2358,15.6974,3.3604,22.6029     c1.6199,2.8638,4.1101,5.8199,7.4261,6.573c1.963-0.224,3.9387-0.0898,5.8494,0.3843c0.1904-2.2327,0.6922-4.4728,2.1545-6.2441     c1.3082-7.1633-0.4387-14.5824-2.0669-21.6089c3.2066,8.9452,4.9362,18.6688,2.7881,28.0711     c1.122-0.0169,2.2414-0.1346,3.3406-0.3485c1.0992,0.2139,2.2186,0.3317,3.3406,0.3485     c-2.1481-9.4023-0.4185-19.1259,2.7881-28.0711c-1.6282,7.0265-3.3752,14.4456-2.0669,21.6089     c1.4623,1.7713,1.9641,4.0114,2.1545,6.2441c1.9107-0.4742,3.8863-0.6084,5.8494-0.3843     c3.3161-0.7531,5.8063-3.7092,7.4261-6.573c3.5962-6.9056,3.739-14.9943,3.3604-22.6029     c-0.4902-12.6574-3.5105-25.0395-4.7562-37.6125c-2.5455,0.4157-4.3873,2.4129-6.5175,3.6935     c-4.051,2.7935-8.0117,5.9139-11.5786,9.4068C121.9331-240.8926,117.9724-244.013,113.9214-246.8065z" stroke-width="0.0606" stroke="#419931" fill="#419931" />
          <path id="path16-3" d="M237.3997-125.5c3.4929,3.5669,6.6133,7.5276,9.4068,11.5786     c1.2806,2.1301,3.2778,3.9719,3.6935,6.5174c-12.573,1.2457-24.9551,4.266-37.6125,4.7562     c-7.6086,0.3786-15.6974,0.2358-22.6029-3.3604c-2.8638-1.6199-5.8199-4.1101-6.573-7.4261     c0.224-1.963,0.0898-3.9387-0.3843-5.8494c2.2327-0.1904,4.4728-0.6922,6.2441-2.1545     c7.1633-1.3082,14.5824,0.4387,21.6089,2.0669c-8.9452-3.2066-18.6688-4.9362-28.0711-2.7881     c0.0169-1.122,0.1346-2.2414,0.3485-3.3406c-0.2139-1.0992-0.3317-2.2186-0.3485-3.3406     c9.4023,2.1481,19.1259,0.4185,28.0711-2.7881c-7.0265,1.6282-14.4456,3.3752-21.6089,2.0669     c-1.7713-1.4623-4.0114-1.9641-6.2441-2.1545c0.4742-1.9107,0.6084-3.8863,0.3843-5.8494     c0.7531-3.3161,3.7092-5.8063,6.573-7.4261c6.9056-3.5962,14.9943-3.739,22.6029-3.3604     c12.6574,0.4902,25.0395,3.5105,37.6125,4.7562c-0.4157,2.5455-2.4129,4.3873-3.6935,6.5175     C244.013-133.0276,240.8926-129.0669,237.3997-125.5z" stroke-width="0.0606" stroke="#419931" fill="#419931" />
          <path id="path18-2" d="M125.5-13.6003c-3.5669,3.4929-7.5276,6.6133-11.5786,9.4068     c-2.1301,1.2806-3.9719,3.2778-6.5174,3.6935c-1.2457-12.573-4.266-24.9551-4.7562-37.6125     c-0.3786-7.6086-0.2358-15.6974,3.3604-22.6029c1.6199-2.8638,4.1101-5.8199,7.4261-6.573     c1.963,0.224,3.9387,0.0898,5.8494-0.3843c0.1904,2.2327,0.6922,4.4728,2.1545,6.2441     c1.3082,7.1633-0.4387,14.5824-2.0669,21.6089c3.2066-8.9452,4.9362-18.6688,2.7881-28.0711     c1.122,0.0169,2.2414,0.1346,3.3406,0.3485c1.0992-0.2139,2.2186-0.3317,3.3406-0.3485     c-2.1481,9.4023-0.4185,19.1259,2.7881,28.0711c-1.6282-7.0265-3.3752-14.4457-2.0669-21.6089     c1.4623-1.7713,1.9641-4.0114,2.1545-6.2441c1.9107,0.4742,3.8863,0.6084,5.8494,0.3843     c3.3161,0.7532,5.8063,3.7092,7.4261,6.573c3.5962,6.9056,3.739,14.9943,3.3604,22.6029     C147.862-25.4551,144.8418-13.073,143.5961-0.5c-2.5455-0.4157-4.3873-2.4129-6.5175-3.6935     C133.0276-6.987,129.0669-10.1074,125.5-13.6003z" stroke-width="0.0606" stroke="#419931" fill="#419931" />
          <path id="path20-8" d="M13.6003-125.5c-3.4929-3.5669-6.6133-7.5276-9.4068-11.5786     c-1.2806-2.1302-3.2778-3.972-3.6935-6.5175c12.573-1.2457,24.9551-4.266,37.6125-4.7562     c7.6086-0.3786,15.6974-0.2358,22.6029,3.3604c2.8638,1.6199,5.8199,4.1101,6.573,7.4261     c-0.224,1.963-0.0898,3.9387,0.3843,5.8494c-2.2327,0.1904-4.4728,0.6922-6.2441,2.1545     c-7.1633,1.3083-14.5824-0.4387-21.6089-2.0669c8.9452,3.2066,18.6688,4.9362,28.0711,2.7881     c-0.0169,1.122-0.1346,2.2414-0.3485,3.3406c0.2139,1.0992,0.3317,2.2186,0.3485,3.3406     c-9.4023-2.1481-19.1259-0.4185-28.0711,2.7881c7.0265-1.6282,14.4457-3.3751,21.6089-2.0669     c1.7713,1.4623,4.0114,1.9641,6.2441,2.1545c-0.4742,1.9107-0.6084,3.8863-0.3843,5.8494     c-0.7532,3.3161-3.7092,5.8063-6.573,7.4261c-6.9056,3.5962-14.9943,3.739-22.6029,3.3604     C25.4551-103.138,13.073-106.1582,0.5-107.4039c0.4157-2.5455,2.4129-4.3873,3.6935-6.5174     C6.987-117.9724,10.1074-121.9331,13.6003-125.5z" stroke-width="0.0606" stroke="#419931" fill="#419931" />
          <path id="path22-2" d="M188.3261-62.6739c3.9944,0.5811,7.9935,1.1103,11.9378,1.7579     c3.9583,0.2481,7.8716,1.6253,11.8471,0.9858c-0.6053-3.2985-2.4429-6.3335-2.1218-9.7808     c2.2301,3.4674,2.8502,7.6545,3.9423,11.5647c-0.9742,0.1755-1.9386,0.402-2.8396,0.8313l-0.0351-0.0179     c-1.2971-0.7036-2.6282-1.4007-4.1138-1.5785c-5.6993-0.8599-11.4648-1.5317-17.2029-2.3484     c0.8167,5.7381,1.4886,11.5035,2.3484,17.2029c0.1778,1.4856,0.8749,2.8167,1.5785,4.1138l0.0179,0.0351     c-0.4293,0.901-0.6558,1.8654-0.8313,2.8396c-3.9102-1.0921-8.0974-1.7121-11.5647-3.9423     c3.4473-0.3211,6.4823,1.5164,9.7808,2.1218c0.6395-3.9755-0.7377-7.8888-0.9858-11.8471     C189.4364-54.6804,188.9072-58.6795,188.3261-62.6739z" stroke-width="0.0606" stroke="#99B932" fill="#99B932" />
          <path id="path24-4" d="M62.6739-62.6739c-0.5811,3.9944-1.1103,7.9935-1.7579,11.9378     c-0.2481,3.9583-1.6253,7.8716-0.9858,11.8471c3.2985-0.6054,6.3335-2.4429,9.7808-2.1218     c-3.4674,2.2301-7.6545,2.8502-11.5647,3.9423c-0.1755-0.9742-0.402-1.9386-0.8313-2.8396l0.0179-0.0351     c0.7036-1.2971,1.4007-2.6282,1.5785-4.1138c0.8599-5.6993,1.5317-11.4648,2.3484-17.2029     c-5.7381,0.8167-11.5035,1.4886-17.2029,2.3484c-1.4856,0.1778-2.8167,0.8749-4.1138,1.5785l-0.0351,0.0179     c-0.901-0.4293-1.8654-0.6558-2.8396-0.8313c1.0921-3.9102,1.7121-8.0974,3.9423-11.5647     c0.3211,3.4473-1.5164,6.4823-2.1218,9.7808c3.9755,0.6395,7.8888-0.7377,11.8471-0.9858     C54.6804-61.5636,58.6795-62.0928,62.6739-62.6739z" stroke-width="0.0606" stroke="#99B932" fill="#99B932" />
          <path id="path26-9" d="M62.6739-188.3261c-3.9944-0.5811-7.9935-1.1103-11.9378-1.7579     c-3.9583-0.2481-7.8716-1.6253-11.8471-0.9858c0.6054,3.2985,2.4429,6.3335,2.1218,9.7808     c-2.2301-3.4674-2.8502-7.6545-3.9423-11.5647c0.9742-0.1755,1.9386-0.402,2.8396-0.8313l0.0351,0.0179     c1.2971,0.7036,2.6282,1.4007,4.1138,1.5785c5.6993,0.8599,11.4648,1.5317,17.2029,2.3484     c-0.8167-5.7381-1.4886-11.5035-2.3484-17.2029c-0.1778-1.4856-0.8749-2.8167-1.5785-4.1138l-0.0179-0.0351     c0.4293-0.901,0.6558-1.8654,0.8313-2.8396c3.9102,1.0921,8.0974,1.7121,11.5647,3.9423     c-3.4473,0.3211-6.4823-1.5164-9.7808-2.1218c-0.6395,3.9755,0.7377,7.8888,0.9858,11.8471     C61.5636-196.3196,62.0928-192.3205,62.6739-188.3261z" stroke-width="0.0606" stroke="#99B932" fill="#99B932" />
          <path id="path28-4" d="M188.3261-188.3261c0.5811-3.9944,1.1103-7.9935,1.7579-11.9378     c0.2481-3.9583,1.6253-7.8716,0.9858-11.8471c-3.2985,0.6053-6.3335,2.4429-9.7808,2.1218     c3.4674-2.2301,7.6545-2.8502,11.5647-3.9423c0.1755,0.9742,0.402,1.9386,0.8313,2.8396l-0.0179,0.0351     c-0.7036,1.2971-1.4007,2.6282-1.5785,4.1138c-0.8599,5.6993-1.5317,11.4648-2.3484,17.2029     c5.7381-0.8167,11.5035-1.4886,17.2029-2.3484c1.4856-0.1778,2.8167-0.8749,4.1138-1.5785l0.0351-0.0179     c0.901,0.4293,1.8654,0.6558,2.8396,0.8313c-1.0921,3.9102-1.7121,8.0974-3.9423,11.5647     c-0.3211-3.4473,1.5164-6.4823,2.1218-9.7808c-3.9755-0.6395-7.8888,0.7377-11.8471,0.9858     C196.3196-189.4364,192.3205-188.9072,188.3261-188.3261z" stroke-width="0.0606" stroke="#99B932" fill="#99B932" />
          <path id="path30-4" d="M162.2636-88.7364c1.9635,0.6381,3.932,1.2403,5.9951,1.409     c3.257,2.2213,6.5998,4.3381,10.1496,6.063c-5.3362-0.3232-9.4039-4.0034-14.1026-5.9881     c-0.2364-0.046-0.4745-0.0985-0.7142-0.1561c0.0576,0.2397,0.1101,0.4778,0.1561,0.7142     c1.9847,4.6987,5.6648,8.7664,5.9881,14.1026c-1.7249-3.5498-3.8418-6.8926-6.063-10.1496     C163.5039-84.8044,162.9017-86.7728,162.2636-88.7364z" stroke-width="0.0606" stroke="#99B932" fill="#99B932" />
          <path id="path32-6" d="M88.7364-88.7364c-0.6381,1.9635-1.2403,3.932-1.409,5.9951     c-2.2213,3.257-4.3381,6.5998-6.063,10.1496c0.3232-5.3362,4.0034-9.4039,5.9881-14.1026     c0.046-0.2364,0.0985-0.4745,0.1561-0.7142c-0.2397,0.0576-0.4778,0.1101-0.7142,0.1561     c-4.6987,1.9847-8.7664,5.6648-14.1026,5.9881c3.5498-1.7249,6.8926-3.8418,10.1496-6.063     C84.8044-87.4961,86.7728-88.0983,88.7364-88.7364z" stroke-width="0.0606" stroke="#99B932" fill="#99B932" />
          <path id="path34-1" d="M88.7364-162.2636c-1.9635-0.6381-3.932-1.2403-5.9951-1.409     c-3.257-2.2213-6.5998-4.3381-10.1496-6.063c5.3362,0.3232,9.4039,4.0034,14.1026,5.9881     c0.2364,0.046,0.4745,0.0985,0.7142,0.1561c-0.0576-0.2397-0.1101-0.4778-0.1561-0.7142     c-1.9847-4.6987-5.6648-8.7664-5.9881-14.1026c1.7249,3.5498,3.8418,6.8926,6.063,10.1496     C87.4961-166.1956,88.0983-164.2272,88.7364-162.2636z" stroke-width="0.0606" stroke="#99B932" fill="#99B932" />
          <path id="path36-7" d="M162.2636-162.2636c0.6381-1.9635,1.2403-3.932,1.409-5.9951     c2.2213-3.257,4.3381-6.5998,6.063-10.1496c-0.3232,5.3362-4.0034,9.4039-5.9881,14.1026     c-0.046,0.2364-0.0985,0.4745-0.1561,0.7142c0.2397-0.0576,0.4778-0.1101,0.7142-0.1561     c4.6987-1.9847,8.7664-5.6648,14.1026-5.9881c-3.5498,1.7249-6.8926,3.8418-10.1496,6.063     C166.1956-163.5039,164.2272-162.9017,162.2636-162.2636z" stroke-width="0.0606" stroke="#99B932" fill="#99B932" />
          <path id="path38-4" d="M163.7476-86.6943c1.9847,4.6987,5.6648,8.7664,5.9881,14.1026     c-6.8361-5.4912-10.977-13.6268-13.3163-21.989c8.3622,2.3393,16.4977,6.4802,21.989,13.3163     c-5.3362-0.3232-9.4039-4.0034-14.1026-5.9881c-0.2364-0.046-0.4745-0.0985-0.7142-0.1561     C163.6492-87.1688,163.7016-86.9307,163.7476-86.6943z M147.3178-89.1276l-0.2431,0.2213     c-1.1624,4.8869-1.5989,10.1238-0.0601,14.9804c3.5993,11.6486,12.0948,21.3855,22.5393,27.4851     c3.8094,1.9889,7.4777,4.5323,11.7351,5.43c3.4473-0.3211,6.4823,1.5164,9.7808,2.1218     c0.6395-3.9755-0.7377-7.8888-0.9858-11.8471c-0.6476-3.9444-1.1768-7.9434-1.7579-11.9378     c3.9944,0.5811,7.9935,1.1103,11.9378,1.7579c3.9583,0.2481,7.8716,1.6253,11.8471,0.9858     c-0.6053-3.2985-2.4428-6.3335-2.1217-9.7808c-0.8977-4.2574-3.4411-7.9257-5.43-11.7351     c-6.0995-10.4445-15.8365-18.94-27.4851-22.5393c-4.8567-1.5388-10.0936-1.1023-14.9804,0.0601l-0.2214,0.2431     c-2.296,2.5668-5.3363,4.3983-7.3833,7.1713C151.7162-94.4639,149.8846-91.4236,147.3178-89.1276z" stroke-width="0.0391" stroke="#A9BD04" fill="#A9BD04" />
          <path id="path40-7" d="M86.6943-87.2524c-4.6987,1.9847-8.7664,5.6648-14.1026,5.9881     c5.4912-6.8361,13.6268-10.977,21.989-13.3163c-2.3393,8.3622-6.4802,16.4977-13.3163,21.989     c0.3232-5.3362,4.0034-9.4039,5.9881-14.1026c0.046-0.2364,0.0985-0.4745,0.1561-0.7142     C87.1688-87.3508,86.9307-87.2984,86.6943-87.2524z M89.1276-103.6822l-0.2213-0.2431     c-4.8869-1.1624-10.1238-1.5989-14.9804-0.0601c-11.6486,3.5993-21.3855,12.0948-27.4851,22.5393     c-1.9889,3.8094-4.5323,7.4777-5.43,11.7351c0.3211,3.4473-1.5164,6.4823-2.1218,9.7808     c3.9755,0.6395,7.8888-0.7377,11.8471-0.9858c3.9444-0.6476,7.9434-1.1768,11.9378-1.7579     c-0.5811,3.9944-1.1103,7.9935-1.7579,11.9378c-0.2481,3.9583-1.6253,7.8716-0.9858,11.8471     c3.2985-0.6053,6.3335-2.4428,9.7808-2.1218c4.2574-0.8977,7.9257-3.441,11.7351-5.43     c10.4445-6.0996,18.94-15.8365,22.5393-27.4851c1.5388-4.8567,1.1023-10.0936-0.0601-14.9804l-0.2431-0.2213     c-2.5668-2.296-4.3983-5.3363-7.1713-7.3833C94.4639-99.2838,91.4236-101.1154,89.1276-103.6822z" stroke-width="0.0391" stroke="#A9BD04" fill="#A9BD04" />
          <path id="path42-0" d="M87.2524-164.3057c-1.9847-4.6987-5.6648-8.7664-5.9881-14.1026     c6.8361,5.4912,10.977,13.6268,13.3163,21.989c-8.3622-2.3393-16.4977-6.4802-21.989-13.3163     c5.3362,0.3232,9.4039,4.0034,14.1026,5.9881c0.2364,0.046,0.4745,0.0985,0.7142,0.1561     C87.3508-163.8312,87.2984-164.0693,87.2524-164.3057z M103.6822-161.8724l0.2431-0.2214     c1.1624-4.8869,1.5989-10.1238,0.0601-14.9804c-3.5993-11.6486-12.0948-21.3855-22.5393-27.4851     c-3.8094-1.9889-7.4777-4.5323-11.7351-5.43c-3.4473,0.3211-6.4823-1.5164-9.7808-2.1217     c-0.6395,3.9755,0.7377,7.8888,0.9858,11.8471c0.6476,3.9444,1.1768,7.9434,1.7579,11.9378     c-3.9944-0.5811-7.9935-1.1103-11.9378-1.7579c-3.9583-0.2482-7.8716-1.6253-11.8471-0.9858     c0.6053,3.2985,2.4428,6.3335,2.1218,9.7808c0.8977,4.2574,3.441,7.9257,5.43,11.7351     c6.0996,10.4445,15.8365,18.94,27.4851,22.5393c4.8567,1.5388,10.0936,1.1023,14.9804-0.0601l0.2213-0.2431     c2.296-2.5668,5.3363-4.3983,7.3833-7.1713C99.2838-156.5361,101.1154-159.5764,103.6822-161.8724z" stroke-width="0.0391" stroke="#A9BD04" fill="#A9BD04" />
          <path id="path44-5" d="M164.3057-163.7476c4.6987-1.9847,8.7664-5.6648,14.1026-5.9881     c-5.4912,6.8361-13.6268,10.977-21.989,13.3163c2.3393-8.3622,6.4802-16.4977,13.3163-21.989     c-0.3232,5.3362-4.0034,9.4039-5.9881,14.1026c-0.046,0.2364-0.0985,0.4745-0.1561,0.7142     C163.8312-163.6492,164.0693-163.7016,164.3057-163.7476z M161.8724-147.3178l0.2214,0.2431     c4.8869,1.1624,10.1238,1.5989,14.9804,0.0601c11.6486-3.5993,21.3855-12.0948,27.4851-22.5393     c1.9889-3.8094,4.5323-7.4777,5.43-11.7351c-0.3211-3.4473,1.5164-6.4823,2.1217-9.7808     c-3.9755-0.6395-7.8888,0.7377-11.8471,0.9858c-3.9444,0.6476-7.9434,1.1768-11.9378,1.7579     c0.5811-3.9944,1.1103-7.9935,1.7579-11.9378c0.2482-3.9583,1.6253-7.8716,0.9858-11.8471     c-3.2985,0.6053-6.3335,2.4428-9.7808,2.1217c-4.2574,0.8977-7.9257,3.4411-11.7351,5.43     c-10.4445,6.0995-18.94,15.8365-22.5393,27.4851c-1.5388,4.8567-1.1023,10.0936,0.0601,14.9804l0.2431,0.2214     c2.5668,2.296,4.3983,5.3363,7.1713,7.3833C156.5361-151.7162,159.5764-149.8846,161.8724-147.3178z" stroke-width="0.0391" stroke="#A9BD04" fill="#A9BD04" />
          <path id="path46-4" d="M206.943-192.0886c1.4856-0.1778,2.8167-0.8749,4.1138-1.5785     c-6.7195,1.2242-13.5446,2.034-20.3468,2.9571c0.9231-6.8022,1.7329-13.6273,2.9571-20.3468     c-0.7036,1.2971-1.4007,2.6282-1.5785,4.1138c-0.8599,5.6993-1.5317,11.4648-2.3484,17.2029     C195.4783-190.5569,201.2437-191.2287,206.943-192.0886z" stroke-width="0.0606" stroke="#165E1F" fill="#165E1F" />
          <path id="path48-8" d="M189.7402-61.2598c5.7381,0.8167,11.5035,1.4886,17.2029,2.3484     c1.4856,0.1778,2.8167,0.8749,4.1138,1.5785c-6.7195-1.2242-13.5446-2.034-20.3468-2.9571     c0.9231,6.8022,1.7329,13.6273,2.9571,20.3468c-0.7036-1.2971-1.4007-2.6282-1.5785-4.1138     C191.2287-49.7563,190.5569-55.5217,189.7402-61.2598z" stroke-width="0.0606" stroke="#165E1F" fill="#165E1F" />
          <path id="path50-9" d="M61.2598-61.2598c-0.8167,5.7381-1.4886,11.5035-2.3484,17.2029     c-0.1778,1.4856-0.8749,2.8167-1.5785,4.1138c1.2242-6.7195,2.034-13.5446,2.9571-20.3468     c-6.8022,0.9231-13.6273,1.7329-20.3468,2.9571c1.2971-0.7036,2.6282-1.4007,4.1138-1.5785     C49.7563-59.7713,55.5217-60.4431,61.2598-61.2598z" stroke-width="0.0606" stroke="#165E1F" fill="#165E1F" />
          <path id="path52-9" d="M61.2598-189.7402c-5.7381-0.8167-11.5035-1.4886-17.2029-2.3484     c-1.4856-0.1778-2.8167-0.8749-4.1138-1.5785c6.7195,1.2242,13.5446,2.034,20.3468,2.9571     c-0.9231-6.8022-1.7329-13.6273-2.9571-20.3468c0.7036,1.2971,1.4007,2.6282,1.5785,4.1138     C59.7713-201.2437,60.4431-195.4783,61.2598-189.7402z" stroke-width="0.0606" stroke="#165E1F" fill="#165E1F" />
          <path id="path54-4" d="M176.0535-132.1331c4.4211,1.2214,8.9088,2.5366,13.5178,2.5713     c-1.7713-1.4623-4.0115-1.9641-6.2441-2.1545c0.4742-1.9107,0.6084-3.8863,0.3843-5.8494     c-0.9233,1.7721-1.2394,3.7588-1.4735,5.7224c-11.1814-2.5549-21.4011-8.4846-30.0543-15.9016     c-0.7917-0.6879-1.5701-1.3893-2.3354-2.1034c-0.7142-0.7652-1.4155-1.5437-2.1034-2.3354     c-7.4169-8.6532-13.3467-18.8729-15.9016-30.0543c1.9636-0.2341,3.9503-0.5501,5.7224-1.4735     c-1.963-0.224-3.9387-0.0898-5.8494,0.3843c-0.1904-2.2327-0.6922-4.4728-2.1545-6.2441     c0.0347,4.609,1.3499,9.0967,2.5713,13.5178c3.2983,10.3186,8.9221,19.7421,16.054,27.8663     C156.3113-141.0552,165.7349-135.4314,176.0535-132.1331z" stroke-width="0.0606" stroke="#46803A" fill="#46803A" />
          <path id="path56-87" d="M148.1871-102.8129c8.1242-7.132,17.5478-12.7558,27.8663-16.054     c4.4211-1.2214,8.9088-2.5366,13.5178-2.5713c-1.7713,1.4623-4.0115,1.9641-6.2441,2.1545     c0.4742,1.9107,0.6084,3.8863,0.3843,5.8494c-0.9233-1.7721-1.2394-3.7588-1.4735-5.7224     c-11.1814,2.5549-21.4011,8.4846-30.0543,15.9016c-0.7917,0.6879-1.5701,1.3893-2.3354,2.1034     c-0.7142,0.7652-1.4155,1.5437-2.1034,2.3354c-7.4169,8.6532-13.3467,18.8729-15.9016,30.0543     c1.9636,0.2341,3.9503,0.5501,5.7224,1.4735c-1.963,0.224-3.9387,0.0898-5.8494-0.3843     c-0.1904,2.2327-0.6922,4.4728-2.1545,6.2441c0.0347-4.609,1.3499-9.0967,2.5713-13.5178     C135.4314-85.2651,141.0552-94.6887,148.1871-102.8129z" stroke-width="0.0606" stroke="#46803A" fill="#46803A" />
          <path id="path58-40" d="M102.8129-102.8129c7.132,8.1242,12.7558,17.5478,16.054,27.8663     c1.2214,4.4211,2.5366,8.9088,2.5713,13.5178c-1.4623-1.7713-1.9641-4.0115-2.1545-6.2441     c-1.9107,0.4742-3.8863,0.6084-5.8494,0.3843c1.7721-0.9233,3.7588-1.2394,5.7224-1.4735     c-2.5549-11.1814-8.4846-21.4011-15.9016-30.0543c-0.6879-0.7917-1.3893-1.5701-2.1034-2.3354     c-0.7652-0.7142-1.5437-1.4155-2.3354-2.1034c-8.6532-7.4169-18.8729-13.3467-30.0543-15.9016     c-0.2341,1.9636-0.5501,3.9503-1.4735,5.7224c-0.224-1.963-0.0898-3.9387,0.3843-5.8494     c-2.2327-0.1904-4.4728-0.6922-6.2441-2.1545c4.609,0.0347,9.0967,1.3499,13.5178,2.5713     C85.2651-115.5686,94.6887-109.9448,102.8129-102.8129z" stroke-width="0.0606" stroke="#46803A" fill="#46803A" />
          <path id="path60-9" d="M102.8129-148.1871     c-8.1242,7.132-17.5478,12.7558-27.8663,16.054c-4.4211,1.2214-8.9088,2.5366-13.5178,2.5713     c1.7713-1.4623,4.0115-1.9641,6.2441-2.1545c-0.4742-1.9107-0.6084-3.8863-0.3843-5.8494     c0.9233,1.7721,1.2394,3.7588,1.4735,5.7224c11.1814-2.5549,21.4011-8.4846,30.0543-15.9016     c0.7917-0.6879,1.5701-1.3893,2.3354-2.1034c0.7142-0.7652,1.4155-1.5437,2.1034-2.3354     c7.4169-8.6532,13.3467-18.8729,15.9016-30.0543c-1.9636-0.2341-3.9503-0.5501-5.7224-1.4735     c1.963-0.224,3.9387-0.0898,5.8494,0.3843c0.1904-2.2327,0.6922-4.4728,2.1545-6.2441     c-0.0347,4.609-1.3499,9.0967-2.5713,13.5178C115.5686-165.7349,109.9448-156.3113,102.8129-148.1871z" stroke-width="0.0606" stroke="#46803A" fill="#46803A" />
          <path id="path62-9" d="M153.1038-97.8962c2.3735-2.6457,5.3094-4.7588,8.7686-5.786     c-2.296,2.5668-5.3363,4.3983-7.3833,7.1713c-2.7729,2.047-4.6045,5.0873-7.1713,7.3833     C148.345-92.5868,150.4581-95.5227,153.1038-97.8962z" stroke-width="0.0606" stroke="#477823" fill="#477823" />
          <path id="path64-6" d="M97.8962-97.8962c2.6457,2.3735,4.7588,5.3094,5.786,8.7686     c-2.5668-2.296-4.3983-5.3363-7.1713-7.3833c-2.047-2.7729-5.0873-4.6045-7.3833-7.1713     C92.5868-102.655,95.5227-100.5419,97.8962-97.8962z" stroke-width="0.0606" stroke="#477823" fill="#477823" />
          <path id="path66-8" d="M97.8962-153.1038c-2.3735,2.6457-5.3094,4.7588-8.7686,5.786     c2.296-2.5668,5.3363-4.3983,7.3833-7.1713c2.7729-2.047,4.6045-5.0873,7.1713-7.3833     C102.655-158.4132,100.5419-155.4773,97.8962-153.1038z" stroke-width="0.0606" stroke="#477823" fill="#477823" />
          <path id="path68-21" d="M153.1038-153.1038c-2.6457-2.3735-4.7588-5.3094-5.786-8.7686     c2.5668,2.296,4.3983,5.3363,7.1713,7.3833c2.047,2.7729,5.0873,4.6045,7.3833,7.1713     C158.4132-148.345,155.4773-150.4581,153.1038-153.1038z" stroke-width="0.0606" stroke="#477823" fill="#477823" />
          <path id="path70-2" d="M156.4194-94.5806c8.3622,2.3393,16.4977,6.4802,21.989,13.3163     c-3.5498-1.7249-6.8926-3.8418-10.1496-6.063c-2.952-2.008-6.1081-3.7195-9.4841-4.8981c1.1785,3.376,2.89,6.5322,4.8981,9.4841     c2.2213,3.257,4.3381,6.5998,6.063,10.1496C162.8996-78.0829,158.7587-86.2185,156.4194-94.5806z" stroke-width="0.0606" stroke="#477823" fill="#477823" />
          <path id="path72-4" d="M94.5806-94.5806c-2.3393,8.3622-6.4802,16.4977-13.3163,21.989     c1.7249-3.5498,3.8418-6.8926,6.063-10.1496c2.008-2.952,3.7195-6.1081,4.8981-9.4841c-3.376,1.1786-6.5322,2.89-9.4841,4.8981     c-3.257,2.2213-6.5998,4.3381-10.1496,6.063C78.0829-88.1004,86.2185-92.2413,94.5806-94.5806z" stroke-width="0.0606" stroke="#477823" fill="#477823" />
          <path id="path74-2" d="M94.5806-156.4194c-8.3622-2.3393-16.4977-6.4802-21.989-13.3163     c3.5498,1.7249,6.8926,3.8418,10.1496,6.063c2.952,2.008,6.1081,3.7195,9.4841,4.8981c-1.1786-3.376-2.89-6.5322-4.8981-9.4841     c-2.2213-3.257-4.3381-6.5998-6.063-10.1496C88.1004-172.9171,92.2413-164.7816,94.5806-156.4194z" stroke-width="0.0606" stroke="#477823" fill="#477823" />
          <path id="path76-9" d="M156.4194-156.4194c2.3393-8.3622,6.4802-16.4977,13.3163-21.989     c-1.7249,3.5498-3.8418,6.8926-6.063,10.1496c-2.008,2.952-3.7195,6.1081-4.8981,9.4841c3.376-1.1785,6.5322-2.89,9.4841-4.8981     c3.257-2.2213,6.5998-4.3381,10.1496-6.063C172.9171-162.8996,164.7816-158.7587,156.4194-156.4194z" stroke-width="0.0606" stroke="#477823" fill="#477823" />
          <path id="path78-6" d="M168.2587-163.6726c-2.0631,0.1687-4.0316,0.7709-5.9951,1.409     c0.6381-1.9635,1.2403-3.932,1.409-5.9951c-2.008,2.952-3.7195,6.1082-4.8981,9.4842     C162.1506-159.9531,165.3067-161.6646,168.2587-163.6726z" stroke-width="0.0606" stroke="#DDF1AF" fill="#DDF1AF" />
          <path id="path80-7" d="M158.7746-92.2255c3.376,1.1786,6.5322,2.89,9.4842,4.8981     c-2.0631-0.1687-4.0316-0.7709-5.9951-1.409c0.6381,1.9635,1.2403,3.932,1.409,5.9951     C161.6646-85.6933,159.9531-88.8494,158.7746-92.2255z" stroke-width="0.0606" stroke="#DDF1AF" fill="#DDF1AF" />
          <path id="path82-7" d="M92.2255-92.2255c-1.1786,3.376-2.89,6.5322-4.8981,9.4842     c0.1687-2.0631,0.7709-4.0315,1.409-5.9951c-1.9635,0.6381-3.932,1.2403-5.9951,1.409     C85.6933-89.3354,88.8494-91.0469,92.2255-92.2255z" stroke-width="0.0606" stroke="#DDF1AF" fill="#DDF1AF" />
          <path id="path84-8" d="M92.2255-158.7746c-3.376-1.1786-6.5322-2.89-9.4842-4.8981     c2.0631,0.1687,4.0315,0.7709,5.9951,1.409c-0.6381-1.9635-1.2403-3.932-1.409-5.9951     C89.3354-165.3067,91.0469-162.1506,92.2255-158.7746z" stroke-width="0.0606" stroke="#DDF1AF" fill="#DDF1AF" />
        </g>
      </g>
    </pattern>
    </defs><g transform="matrix(0.87197585 0 0 0.9005986 -736.86771 -36.497165)"><rect y="40.525452" x="845.05518" height="88" width="63" id="rect47766" style="opacity:1;vector-effect:none;fill:#032300;fill-opacity:1;stroke:none;stroke-width:0.573425;stroke-linecap:round;stroke-linejoin:miter;stroke-miterlimit:4;stroke-dasharray:none;stroke-dashoffset:0;stroke-opacity:1;paint-order:stroke fill markers" />
      </g><g transform="matrix(0.87197585 0 0 0.9005986 -736.86771 -36.497165)"><rect style="display:inline;fill:url(#pattern47860);fill-opacity:1;stroke:none;stroke-width:0.284154;stroke-linecap:round;stroke-linejoin:miter;stroke-miterlimit:4;stroke-dasharray:none;stroke-opacity:1" id="rect47768" width="62.717121" height="87.716759" x="845.19659" y="40.667072" />
    </g></svg>